<svg viewBox="0 0 64 64" xmlns="http://www.w3.org/2000/svg"><path d="m32 0c-3.3 0-6 2.7-6 6s2.7 6 6 6 6-2.7 6-6-2.7-6-6-6m0 10.3c-2.4 0-4.3-1.9-4.3-4.3s1.9-4.3 4.3-4.3 4.3 1.9 4.3 4.3-1.9 4.3-4.3 4.3" fill="#d0d0d0"/><path d="m30.5 8.6h3v6.5h-3z" fill="#4e5c66"/><path d="m34.5 11.6h-5v-5.7c0-1.5 5-1.5 5 0z" fill="#647a87"/><path d="m10.737 20.686 2.969-2.97 2.97 2.969-2.968 2.97z" fill="#4e5c66"/><path d="m15.6 17.6-5 5-3.1-3.1c-.6-.6-.6-1.6 0-2.2l2.8-2.8c.6-.6 1.6-.6 2.2 0z" fill="#647a87"/><path d="m47.344 20.705 2.97-2.97 2.97 2.97-2.97 2.97z" fill="#4e5c66"/><g fill="#647a87"><path d="m53.4 22.6-5-5 3.1-3.1c.6-.6 1.6-.6 2.2 0l2.8 2.8c.6.6.6 1.6 0 2.2z"/><circle cx="32" cy="39" r="25"/></g><circle cx="32" cy="39" fill="#d2d3d5" r="21.7"/><circle cx="32" cy="39" fill="#fff" r="20"/><path d="m52 39c0 5.5-2.2 10.5-5.8 14.1l-14.2-14.1v-20c11 0 20 9 20 20z" fill="#ed4c5c"/><g fill="#3e4347"><path d="m43.5 50.4-10.2-12.1-2 2zm-12.2-29.7h1.4v5.6h-1.4zm0 31h1.4v5.6h-1.4zm-17.6-13.4h5.6v1.4h-5.6zm31 0h5.6v1.4h-5.6zm-22.522-14.837 1.213-.7 1.4 2.425-1.213.7zm-6.45 7 .7-1.212 2.425 1.4-.7 1.213zm.033 17.149 2.424-1.402.7 1.212-2.423 1.402zm6.491 6.964 1.4-2.425 1.212.7-1.4 2.425zm16.906-1.85 1.212-.7 1.4 2.425-1.211.7zm5.942-5.296.7-1.213 2.425 1.401-.7 1.213zm-.074-16.802 2.424-1.4.7 1.212-2.424 1.4zm-5.89-5.478 1.401-2.424 1.212.7-1.4 2.425z"/><circle cx="32" cy="39" r="2.8"/></g></svg>